<?xml version="1.0" encoding="utf-8"?>
<!-- Generator: Adobe Illustrator 26.0.0, SVG Export Plug-In . SVG Version: 6.00 Build 0)  -->
<svg version="1.1" id="Layer_1" xmlns="http://www.w3.org/2000/svg" xmlns:xlink="http://www.w3.org/1999/xlink" x="0px" y="0px"
	 viewBox="0 0 31.9 32" style="enable-background:new 0 0 31.9 32;" xml:space="preserve">
<style type="text/css">
	.st0{fill:#06B6D4;}
</style>
<g>
	<path class="st0" d="M22.6,24.9c0,2-0.9,3.8-2.2,5c-0.6,0.6-1.4,1-2.2,1.3c-0.7,0.2-1.4,0.4-2.2,0.4c-0.8,0-1.5-0.1-2.2-0.4
		c-0.8-0.3-1.6-0.7-2.2-1.3c-1.4-1.2-2.2-3-2.2-5s0.9-3.8,2.2-5c0.6-0.6,1.4-1,2.2-1.3c0.7-0.2,1.4-0.4,2.2-0.4
		c0.8,0,1.5,0.1,2.2,0.4c0.8,0.3,1.6,0.7,2.2,1.3C21.8,21.1,22.6,22.9,22.6,24.9z"/>
	<rect x="9.3" y="0.4" class="st0" width="13.3" height="5.6"/>
	<rect x="9.3" y="9.3" class="st0" width="13.3" height="5.6"/>
</g>
</svg>
